<svg width="360" height="260" viewBox="0 0 360 260" fill="none" xmlns="http://www.w3.org/2000/svg">
  <path d="M72 48c54-23 147-18 197 8 31 16 40 49 24 76-20 34-73 48-122 42-58-8-125-37-128-76-2-22 8-41 29-50Z" fill="#F7E7A7" fill-opacity=".64"/>
  <path d="M87 53c38-17 112-18 163 0 38 13 53 42 44 69-12 39-76 59-136 47-50-10-99-34-108-66-7-24 8-39 37-50Z" stroke="#2F2925" stroke-width="4" stroke-linecap="round" stroke-dasharray="9 10"/>
  <path d="M112 88c18-10 46-12 65-6" stroke="#2F2925" stroke-width="5" stroke-linecap="round"/>
  <path d="M107 113c29 8 72 9 112-4" stroke="#2F2925" stroke-width="4" stroke-linecap="round"/>
  <path d="M128 139c24 8 70 5 99-8" stroke="#2F2925" stroke-width="4" stroke-linecap="round"/>
  <path d="M282 44l13-27 12 27 26 10-26 10-12 28-13-28-26-10 26-10Z" fill="#F3B8C6" stroke="#2F2925" stroke-width="4" stroke-linejoin="round"/>
  <path d="M38 154c21-15 48-15 67 0 17 15 19 40 1 56-21 18-55 14-72-6-13-16-11-37 4-50Z" fill="#CCEBD9" stroke="#2F2925" stroke-width="4" stroke-linecap="round" stroke-dasharray="8 9"/>
  <path d="M55 174c8 10 17 15 27 15 9 0 17-5 24-16" stroke="#2F2925" stroke-width="4" stroke-linecap="round"/>
  <path d="M262 179c5-22 29-33 48-20 20 13 18 42 1 56-20 16-53 8-56-17-1-6 1-12 7-19Z" fill="#B9D9F2" stroke="#2F2925" stroke-width="4" stroke-linecap="round"/>
  <path d="M292 177v23" stroke="#2F2925" stroke-width="5" stroke-linecap="round"/>
  <path d="M280 188h24" stroke="#2F2925" stroke-width="5" stroke-linecap="round"/>
</svg>
